<?xml version="1.0" encoding="utf-8"?>
<!-- Generator: Adobe Illustrator 26.0.1, SVG Export Plug-In . SVG Version: 6.00 Build 0)  -->
<svg version="1.1" id="Layer_1" xmlns="http://www.w3.org/2000/svg" xmlns:xlink="http://www.w3.org/1999/xlink" x="0px" y="0px"
	 viewBox="0 0 155 50" style="enable-background:new 0 0 155 50;" xml:space="preserve">
<style type="text/css">
	.st0{fill:#26A74A;}
	.st1{fill:#161719;}
	.st2{fill:none;}
</style>
<g>
	<g>
		<path class="st0" d="M52.6,18.59c0,8.67-5.76,15.96-13.55,18.01l-3.56-6.23c5.42-0.52,9.67-5.6,9.67-11.79
			c0-6.54-4.74-11.83-10.59-11.83c-5.85,0-10.59,5.3-10.59,11.83c0,6.53,4.74,11.83,10.59,11.83v6.76
			c-9.96,0-18.03-8.32-18.03-18.59C16.54,8.32,24.61,0,34.57,0C44.53,0,52.6,8.32,52.6,18.59"/>
		<polygon class="st1" points="65.89,25.88 58.4,36.82 49.33,36.71 59.2,22.44 		"/>
		<polygon class="st1" points="83.42,36.71 74.51,36.71 66.45,25.07 61.91,18.52 49.44,0.53 58.46,0.53 66.4,12.04 74.4,0.48 
			83.3,0.48 70.9,18.57 		"/>
		<path class="st0" d="M109.42,0.53V36.7h-7.1c0-0.06,0.01-1.13,0.02-2.85c0.01-2.12,0.04-5.24,0.06-8.74
			c0.01-0.8,0.01-1.61,0.02-2.44c-0.56-3.39-3.53-5.97-7.11-5.97c-3.98,0-7.21,3.2-7.21,7.14c0,3.72,2.88,6.78,6.55,7.11
			c0.22,0.02,0.44,0.03,0.66,0.03c1.03,0,2.02-0.22,2.91-0.6l2.58,4.63l-0.02,0.05c-0.61,0.41-1.26,0.76-1.94,1.05
			c-1.5,0.65-3.14,1.01-4.86,1.01c-7.05,0-12.77-6.02-12.77-13.44c0-7.42,5.72-13.44,12.77-13.44c3.26,0,6.24,1.29,8.5,3.41
			c0.05-7.12,0.09-13.13,0.09-13.13H109.42z"/>
		<path class="st0" d="M112.12,10.97v15.3c0,0-0.46,10.86,11.07,10.86c0,0,4.94-0.04,6.97-2.49l-2.58-4.48c0,0-6.8,3.04-8.16-2.41
			V10.97H112.12z"/>
		<polygon class="st0" points="131.47,10.96 138.46,10.96 138.46,36.87 131.42,36.87 		"/>
	</g>
	<g>
		<polygon points="18.62,44.85 16.63,44.85 16.63,43.9 21.73,43.9 21.73,44.85 19.74,44.85 19.74,49.91 18.62,49.91 		"/>
		<polygon points="29.93,43.9 29.93,49.91 28.81,49.91 28.81,47.34 25.7,47.34 25.7,49.91 24.59,49.91 24.59,43.9 25.7,43.9 
			25.7,46.38 28.81,46.38 28.81,43.9 		"/>
		<polygon points="38.07,48.98 38.07,49.91 33.56,49.91 33.56,43.9 37.95,43.9 37.95,44.84 34.68,44.84 34.68,46.4 37.58,46.4 
			37.58,47.32 34.68,47.32 34.68,48.98 		"/>
		<polygon points="51.33,44.85 49.33,44.85 49.33,43.9 54.44,43.9 54.44,44.85 52.44,44.85 52.44,49.91 51.33,49.91 		"/>
		<polygon points="61.8,48.98 61.8,49.91 57.3,49.91 57.3,43.9 61.68,43.9 61.68,44.84 58.41,44.84 58.41,46.4 61.32,46.4 
			61.32,47.32 58.41,47.32 58.41,48.98 		"/>
		<path d="M64.61,46.91c0-1.8,1.37-3.09,3.22-3.09c0.98,0,1.82,0.35,2.38,1.01l-0.72,0.68c-0.44-0.47-0.98-0.7-1.61-0.7
			c-1.25,0-2.15,0.88-2.15,2.11c0,1.24,0.9,2.11,2.15,2.11c0.63,0,1.17-0.23,1.61-0.71l0.72,0.69c-0.56,0.65-1.4,1-2.39,1
			C65.98,50,64.61,48.7,64.61,46.91"/>
		<polygon points="78.64,43.9 78.64,49.91 77.53,49.91 77.53,47.34 74.42,47.34 74.42,49.91 73.3,49.91 73.3,43.9 74.42,43.9 
			74.42,46.38 77.53,46.38 77.53,43.9 		"/>
		<path d="M90.54,49.28l0.39-0.87c0.48,0.39,1.25,0.66,1.99,0.66c0.94,0,1.33-0.33,1.33-0.78c0-1.3-3.57-0.45-3.57-2.68
			c0-0.97,0.77-1.8,2.42-1.8c0.72,0,1.48,0.19,2,0.53l-0.35,0.87c-0.54-0.32-1.13-0.47-1.66-0.47c-0.93,0-1.31,0.36-1.31,0.82
			c0,1.28,3.56,0.45,3.56,2.65c0,0.96-0.78,1.79-2.43,1.79C91.98,50,91.04,49.71,90.54,49.28"/>
		<path d="M98.04,46.91c0-1.8,1.37-3.09,3.22-3.09c0.98,0,1.82,0.35,2.38,1.01l-0.72,0.68c-0.44-0.47-0.98-0.7-1.61-0.7
			c-1.25,0-2.15,0.88-2.15,2.11c0,1.24,0.9,2.11,2.15,2.11c0.63,0,1.17-0.23,1.61-0.71l0.72,0.69c-0.56,0.65-1.4,1-2.39,1
			C99.41,50,98.04,48.7,98.04,46.91"/>
		<polygon points="112.07,43.9 112.07,49.91 110.96,49.91 110.96,47.34 107.85,47.34 107.85,49.91 106.73,49.91 106.73,43.9 
			107.85,43.9 107.85,46.38 110.96,46.38 110.96,43.9 		"/>
		<path d="M115.27,46.91c0-1.78,1.37-3.09,3.24-3.09c1.86,0,3.24,1.3,3.24,3.09c0,1.79-1.37,3.09-3.24,3.09
			C116.65,50,115.27,48.69,115.27,46.91 M120.62,46.91c0-1.23-0.9-2.11-2.11-2.11c-1.21,0-2.11,0.88-2.11,2.11
			c0,1.23,0.9,2.11,2.11,2.11C119.72,49.02,120.62,48.14,120.62,46.91"/>
		<path d="M124.52,46.91c0-1.78,1.37-3.09,3.24-3.09c1.86,0,3.24,1.3,3.24,3.09c0,1.79-1.38,3.09-3.24,3.09
			C125.9,50,124.52,48.69,124.52,46.91 M129.87,46.91c0-1.23-0.9-2.11-2.11-2.11c-1.21,0-2.11,0.88-2.11,2.11
			c0,1.23,0.9,2.11,2.11,2.11C128.97,49.02,129.87,48.14,129.87,46.91"/>
		<polygon points="134.2,43.9 135.32,43.9 135.32,48.97 138.46,48.97 138.46,49.91 134.2,49.91 		"/>
	</g>
</g>
<rect x="123.39" y="-138.34" class="st2" width="595.28" height="326.81"/>
</svg>
